<svg width="35" height="35" viewBox="0 0 48 48" fill="none" xmlns="http://www.w3.org/2000/svg">
  <path
    d="M16.8598 12.8718C22.7336 8.77621 29.2185 8.02145 35.5533 6.59971C41.6549 5.26572 42.6908 4.79766 48 0C47.596 2.5685 47.5338 4.58118 46.9641 6.33057C45.3739 11.2569 42.1625 14.1414 38.4539 16.2769C33.2742 19.2843 27.675 19.9922 22.1276 20.8932C18.0511 21.5719 14.0421 22.2331 11.9443 27.8206C11.507 23.0909 9.63489 18.6776 6.64552 15.3291C4.75791 13.2801 2.48678 11.7365 0 10.8123C4.22143 5.51731 10.2039 6.21355 16.8598 12.8718Z"
    fill="white" />
  <path
    d="M26.5563 35.6139C28.1102 40.2945 30.5653 44.2087 33.5592 48C32.0985 47.7777 30.6171 47.6665 29.1772 47.3213C24.5174 46.2388 20.2574 43.587 16.9583 39.7153C13.1927 35.3857 14.8865 29.9386 17.5644 27.2121C21.1901 23.5203 25.6757 23.1166 30.0888 22.0985C34.6624 21.0571 38.7026 19.7582 43.0742 16.1073C43.0173 19.3896 42.6495 20.2672 41.5928 22.9527C39.6867 27.7855 35.1234 28.9089 31.1247 30.0732C30.3219 30.3131 29.5087 30.5061 28.6851 30.6875C26.8878 31.0854 25.8467 33.49 26.5563 35.6139Z"
    fill="white" />
</svg>